<?xml version="1.0" encoding="UTF-8"?>
<svg version="1.1" xmlns="http://www.w3.org/2000/svg" width="95" height="96">
<path d="M0 0 C1.79513956 1.59460145 3.50786087 3.19349477 5.16796875 4.92578125 C6.15796875 5.85390625 6.15796875 5.85390625 7.16796875 6.80078125 C9.27886599 9.04360956 10.66382909 11.24448881 12.16796875 13.92578125 C12.72484375 14.81265625 13.28171875 15.69953125 13.85546875 16.61328125 C15.16796875 18.92578125 15.16796875 18.92578125 15.16796875 20.92578125 C15.82796875 21.25578125 16.48796875 21.58578125 17.16796875 21.92578125 C18.74420115 29.71772257 18.28110977 38.01848131 18.16796875 45.92578125 C15.93971231 43.69752481 15.47557506 42.26816497 14.54296875 39.30078125 C14.28257813 38.48351563 14.0221875 37.66625 13.75390625 36.82421875 C13.56054688 36.19773438 13.3671875 35.57125 13.16796875 34.92578125 C13.14102024 36.88403998 13.12159657 38.84240351 13.10546875 40.80078125 C13.09386719 41.89132813 13.08226563 42.981875 13.0703125 44.10546875 C12.97052572 46.87755671 12.97052572 46.87755671 14.16796875 48.92578125 C15.40782697 57.07342097 10.97216223 64.06928036 6.3046875 70.48828125 C-0.3608189 78.39605637 -9.10743825 85.1054 -19.67333984 86.22753906 C-22.87761562 86.36414959 -26.06253644 86.384242 -29.26953125 86.36328125 C-30.89084961 86.39325195 -30.89084961 86.39325195 -32.54492188 86.42382812 C-42.27824245 86.41792557 -49.01871315 83.65554786 -56.83203125 77.92578125 C-57.76015625 77.26578125 -58.68828125 76.60578125 -59.64453125 75.92578125 C-66.83196512 69.8031524 -74.23545713 60.48026756 -75.11108398 50.85986328 C-75.23570405 47.20994807 -75.24105412 43.57756962 -75.20703125 39.92578125 C-75.21863281 38.68054687 -75.23023437 37.4353125 -75.2421875 36.15234375 C-75.22135104 29.63747714 -75.05937491 24.63748299 -71.83203125 18.92578125 C-71.21521484 17.80816406 -71.21521484 17.80816406 -70.5859375 16.66796875 C-62.08258756 3.3414072 -52.67422885 -3.8361748 -37.12109375 -7.3359375 C-25.22576756 -9.63420228 -9.95955263 -7.29451372 0 0 Z " fill="#FEFEFE" transform="translate(75.83203125,9.07421875)"/>
<path d="M0 0 C5.625 -0.25 5.625 -0.25 9 2 C9.66 1.34 10.32 0.68 11 0 C13.80592024 -0.1829948 16.22470386 -0.22508598 18.9375 0.5625 C21.23101269 1.17835663 21.23101269 1.17835663 24.5 0.4375 C28.00096274 -0.00012034 29.1601042 0.06887085 32 2 C32.66 1.34 33.32 0.68 34 0 C37.10347254 -0.33015665 39.15781176 -0.50531294 41.875 1.125 C43 3 43 3 42.875 6 C42.91625 6.99 42.9575 7.98 43 9 C45.35589996 10.88051585 45.35589996 10.88051585 48 12 C49 13 49 13 49.0625 16.5625 C49.041875 17.696875 49.02125 18.83125 49 20 C49.804375 20.28875 50.60875 20.5775 51.4375 20.875 C54 22 54 22 55 24 C55.09465345 25.35157981 55.13072162 26.70761148 55.1328125 28.0625 C55.13410156 28.85914062 55.13539062 29.65578125 55.13671875 30.4765625 C55.13285156 31.30929688 55.12898438 32.14203125 55.125 33 C55.12886719 33.83273438 55.13273437 34.66546875 55.13671875 35.5234375 C55.13542969 36.32007813 55.13414063 37.11671875 55.1328125 37.9375 C55.13168457 38.66839844 55.13055664 39.39929687 55.12939453 40.15234375 C55 42 55 42 54 44 C53.01 44 52.02 44 51 44 C51.01160156 45.21558594 51.02320312 46.43117187 51.03515625 47.68359375 C51.04453278 49.26822764 51.05363313 50.85286318 51.0625 52.4375 C51.07087891 53.23994141 51.07925781 54.04238281 51.08789062 54.86914062 C51.0965143 56.91295221 51.0522815 58.95683902 51 61 C50 62 50 62 46.875 62.1328125 C45.59625 62.13023438 44.3175 62.12765625 43 62.125 C41.72125 62.12757812 40.4425 62.13015625 39.125 62.1328125 C36 62 36 62 35 61 C34.91368126 59.65732587 34.89293527 58.31025678 34.90234375 56.96484375 C34.90556641 56.15595703 34.90878906 55.34707031 34.91210938 54.51367188 C34.92467773 53.2384668 34.92467773 53.2384668 34.9375 51.9375 C34.94201172 51.08349609 34.94652344 50.22949219 34.95117188 49.34960938 C34.96299627 47.23304337 34.98093231 45.11651315 35 43 C32.69 43 30.38 43 28 43 C28.01160156 44.28777344 28.02320313 45.57554688 28.03515625 46.90234375 C28.0445327 48.58072772 28.05363305 50.25911326 28.0625 51.9375 C28.07087891 52.78763672 28.07925781 53.63777344 28.08789062 54.51367188 C28.09111328 55.32255859 28.09433594 56.13144531 28.09765625 56.96484375 C28.10289307 57.7137085 28.10812988 58.46257324 28.11352539 59.23413086 C28 61 28 61 27 62 C24.66839945 62.09909302 22.33370058 62.12970504 20 62.125 C18.72125 62.12757812 17.4425 62.13015625 16.125 62.1328125 C13 62 13 62 12 61 C11.92674832 58.13732433 11.90761795 55.299281 11.9375 52.4375 C11.94201172 51.63119141 11.94652344 50.82488281 11.95117188 49.99414062 C11.96299482 47.99606244 11.98093086 45.99802217 12 44 C8.535 43.505 8.535 43.505 5 43 C5.01160156 44.28777344 5.02320312 45.57554688 5.03515625 46.90234375 C5.0445327 48.58072772 5.05363305 50.25911326 5.0625 51.9375 C5.07087891 52.78763672 5.07925781 53.63777344 5.08789062 54.51367188 C5.09272461 55.72700195 5.09272461 55.72700195 5.09765625 56.96484375 C5.10551147 58.08814087 5.10551147 58.08814087 5.11352539 59.23413086 C5 61 5 61 4 62 C1.66839945 62.09909302 -0.66629942 62.12970504 -3 62.125 C-4.27875 62.12757812 -5.5575 62.13015625 -6.875 62.1328125 C-10 62 -10 62 -11 61 C-11.07325168 58.13732433 -11.09238205 55.299281 -11.0625 52.4375 C-11.05798828 51.63119141 -11.05347656 50.82488281 -11.04882812 49.99414062 C-11.03700518 47.99606244 -11.01906914 45.99802217 -11 44 C-11.99 44 -12.98 44 -14 44 C-15.53266582 40.93466836 -15.10276471 37.73245728 -15.0625 34.375 C-15.05798828 33.66859375 -15.05347656 32.9621875 -15.04882812 32.234375 C-15.03703875 30.48954725 -15.01910324 28.744763 -15 27 C-14.34 26.67 -13.68 26.34 -13 26 C-13 31.28 -13 36.56 -13 42 C-11.68 42 -10.36 42 -9 42 C-9 47.94 -9 53.88 -9 60 C-5.04 60 -1.08 60 3 60 C3 54.06 3 48.12 3 42 C4.32 42 5.64 42 7 42 C6.67 36.06 6.34 30.12 6 24 C3.69 23.01 1.38 22.02 -1 21 C-0.34 20.01 0.32 19.02 1 18 C0.84298574 15.38084878 0.84298574 15.38084878 0 13 C-0.66 12.67 -1.32 12.34 -2 12 C-2 11.34 -2 10.68 -2 10 C-0.865625 10.020625 0.26875 10.04125 1.4375 10.0625 C4.81575674 10.41577477 4.81575674 10.41577477 6 9 C6.04063832 7.33382885 6.042721 5.66611905 6 4 C4.02 3.34 2.04 2.68 0 2 C0 1.34 0 0.68 0 0 Z " fill="#F39D69" transform="translate(27,17)"/>
<path d="M0 0 C6.75 0.75 6.75 0.75 9 3 C9.25 5.5 9.25 5.5 9 8 C8.34 8.66 7.68 9.32 7 10 C3.375 9.625 3.375 9.625 0 9 C0 9.66 0 10.32 0 11 C1.32 11.66 2.64 12.32 4 13 C3.125 17.875 3.125 17.875 2 19 C2.969375 19.474375 3.93875 19.94875 4.9375 20.4375 C8 22 8 22 9 23 C9.08631874 24.34267413 9.10706473 25.68974322 9.09765625 27.03515625 C9.09443359 27.84404297 9.09121094 28.65292969 9.08789062 29.48632812 C9.07951172 30.33646484 9.07113281 31.18660156 9.0625 32.0625 C9.05798828 32.91650391 9.05347656 33.77050781 9.04882812 34.65039062 C9.03700373 36.76695663 9.01906769 38.88348685 9 41 C7.68 41 6.36 41 5 41 C5 46.94 5 52.88 5 59 C1.04 59 -2.92 59 -7 59 C-7 53.06 -7 47.12 -7 41 C-8.32 41 -9.64 41 -11 41 C-11.06058594 39.95199219 -11.12117187 38.90398438 -11.18359375 37.82421875 C-11.26801738 36.44529952 -11.35266447 35.06639395 -11.4375 33.6875 C-11.47681641 32.99720703 -11.51613281 32.30691406 -11.55664062 31.59570312 C-11.74927415 28.52838465 -12.02322717 25.93031848 -13 23 C-11.71034824 21.62437146 -10.37310707 20.29233607 -9 19 C-8.34 19 -7.68 19 -7 19 C-7.061875 17.906875 -7.12375 16.81375 -7.1875 15.6875 C-7 12 -7 12 -5.6875 10.0625 C-4 9 -4 9 -1 9 C-1.20625 8.071875 -1.4125 7.14375 -1.625 6.1875 C-2 3 -2 3 0 0 Z " fill="#FEFBFA" transform="translate(25,18)"/>
<path d="M0 0 C5.625 -0.25 5.625 -0.25 9 2 C9.66 1.34 10.32 0.68 11 0 C13.80592024 -0.1829948 16.22470386 -0.22508598 18.9375 0.5625 C21.2435849 1.18580879 21.2435849 1.18580879 24.5625 0.375 C28 0 28 0 29.9375 1.4375 C30.288125 1.953125 30.63875 2.46875 31 3 C28.33333333 3 25.66666667 3 23 3 C22.14025199 5.29294488 22.14025199 5.29294488 22 8 C23.83358335 10.33454661 23.83358335 10.33454661 26 12 C25.34 12.66 24.68 13.32 24 14 C23.505 13.505 23.505 13.505 23 13 C20.5 12.83333333 20.5 12.83333333 18 13 C16.72443182 14.05224667 16.72443182 14.05224667 16.875 16.4375 C16.82693324 18.98978622 16.82693324 18.98978622 18 21 C15.69 21.99 13.38 22.98 11 24 C10.67 29.94 10.34 35.88 10 42 C11.32 42 12.64 42 14 42 C14 47.94 14 53.88 14 60 C17.96 60 21.92 60 26 60 C26 54.06 26 48.12 26 42 C27.65 42 29.3 42 31 42 C30.01 42.33 29.02 42.66 28 43 C28.01160156 44.28777344 28.02320313 45.57554688 28.03515625 46.90234375 C28.0445327 48.58072772 28.05363305 50.25911326 28.0625 51.9375 C28.07087891 52.78763672 28.07925781 53.63777344 28.08789062 54.51367188 C28.09111328 55.32255859 28.09433594 56.13144531 28.09765625 56.96484375 C28.10289307 57.7137085 28.10812988 58.46257324 28.11352539 59.23413086 C28 61 28 61 27 62 C24.66839945 62.09909302 22.33370058 62.12970504 20 62.125 C18.72125 62.12757812 17.4425 62.13015625 16.125 62.1328125 C13 62 13 62 12 61 C11.92674832 58.13732433 11.90761795 55.299281 11.9375 52.4375 C11.94201172 51.63119141 11.94652344 50.82488281 11.95117188 49.99414062 C11.96299482 47.99606244 11.98093086 45.99802217 12 44 C8.535 43.505 8.535 43.505 5 43 C5.01160156 44.28777344 5.02320312 45.57554688 5.03515625 46.90234375 C5.0445327 48.58072772 5.05363305 50.25911326 5.0625 51.9375 C5.07087891 52.78763672 5.07925781 53.63777344 5.08789062 54.51367188 C5.09272461 55.72700195 5.09272461 55.72700195 5.09765625 56.96484375 C5.10551147 58.08814087 5.10551147 58.08814087 5.11352539 59.23413086 C5 61 5 61 4 62 C1.66839945 62.09909302 -0.66629942 62.12970504 -3 62.125 C-4.27875 62.12757812 -5.5575 62.13015625 -6.875 62.1328125 C-10 62 -10 62 -11 61 C-11.07325168 58.13732433 -11.09238205 55.299281 -11.0625 52.4375 C-11.05798828 51.63119141 -11.05347656 50.82488281 -11.04882812 49.99414062 C-11.03700518 47.99606244 -11.01906914 45.99802217 -11 44 C-11.99 44 -12.98 44 -14 44 C-15.53266582 40.93466836 -15.10276471 37.73245728 -15.0625 34.375 C-15.05798828 33.66859375 -15.05347656 32.9621875 -15.04882812 32.234375 C-15.03703875 30.48954725 -15.01910324 28.744763 -15 27 C-14.34 26.67 -13.68 26.34 -13 26 C-13 31.28 -13 36.56 -13 42 C-11.68 42 -10.36 42 -9 42 C-9 47.94 -9 53.88 -9 60 C-5.04 60 -1.08 60 3 60 C3 54.06 3 48.12 3 42 C4.32 42 5.64 42 7 42 C6.67 36.06 6.34 30.12 6 24 C3.69 23.01 1.38 22.02 -1 21 C-0.34 20.01 0.32 19.02 1 18 C0.84298574 15.38084878 0.84298574 15.38084878 0 13 C-0.66 12.67 -1.32 12.34 -2 12 C-2 11.34 -2 10.68 -2 10 C-0.865625 10.020625 0.26875 10.04125 1.4375 10.0625 C4.81575674 10.41577477 4.81575674 10.41577477 6 9 C6.04063832 7.33382885 6.042721 5.66611905 6 4 C4.02 3.34 2.04 2.68 0 2 C0 1.34 0 0.68 0 0 Z " fill="#F3A16F" transform="translate(27,17)"/>
<path d="M0 0 C0.73734375 0.00773437 1.4746875 0.01546875 2.234375 0.0234375 C3.34039062 0.01183594 3.34039062 0.01183594 4.46875 0 C9.9810554 0.0201179 9.9810554 0.0201179 12.234375 2.2734375 C12.46142578 4.15283203 12.46142578 4.15283203 12.4296875 6.40625 C12.42324219 7.21191406 12.41679688 8.01757812 12.41015625 8.84765625 C12.39339844 9.68941406 12.37664062 10.53117187 12.359375 11.3984375 C12.35035156 12.24792969 12.34132813 13.09742188 12.33203125 13.97265625 C12.30843147 16.07303634 12.27255983 18.17327194 12.234375 20.2734375 C10.914375 20.2734375 9.594375 20.2734375 8.234375 20.2734375 C8.234375 26.2134375 8.234375 32.1534375 8.234375 38.2734375 C4.274375 38.2734375 0.314375 38.2734375 -3.765625 38.2734375 C-3.765625 32.0034375 -3.765625 25.7334375 -3.765625 19.2734375 C-5.085625 19.2734375 -6.405625 19.2734375 -7.765625 19.2734375 C-7.81943078 16.48151545 -7.85920169 13.6906234 -7.890625 10.8984375 C-7.90738281 10.104375 -7.92414062 9.3103125 -7.94140625 8.4921875 C-7.95897973 6.41851735 -7.86897668 4.34460509 -7.765625 2.2734375 C-5.20613501 -0.28605249 -3.49355305 0.01275019 0 0 Z " fill="#FEFCFB" transform="translate(67.765625,38.7265625)"/>
<path d="M0 0 C0.73734375 0.00773437 1.4746875 0.01546875 2.234375 0.0234375 C3.34039062 0.01183594 3.34039062 0.01183594 4.46875 0 C9.9810554 0.0201179 9.9810554 0.0201179 12.234375 2.2734375 C12.37955244 5.1827933 12.42068296 7.9933835 12.359375 10.8984375 C12.35035156 11.70023438 12.34132813 12.50203125 12.33203125 13.328125 C12.30843723 15.31002273 12.27256565 17.29176731 12.234375 19.2734375 C10.914375 19.2734375 9.594375 19.2734375 8.234375 19.2734375 C8.234375 25.5434375 8.234375 31.8134375 8.234375 38.2734375 C4.274375 38.2734375 0.314375 38.2734375 -3.765625 38.2734375 C-3.765625 32.3334375 -3.765625 26.3934375 -3.765625 20.2734375 C-5.085625 20.2734375 -6.405625 20.2734375 -7.765625 20.2734375 C-7.81941726 17.31486341 -7.85919593 14.35726029 -7.890625 11.3984375 C-7.90738281 10.55667969 -7.92414062 9.71492188 -7.94140625 8.84765625 C-7.94785156 8.04199219 -7.95429687 7.23632812 -7.9609375 6.40625 C-7.97664795 5.29080811 -7.97664795 5.29080811 -7.99267578 4.15283203 C-7.42744207 -0.5258444 -3.87069706 0.01412663 0 0 Z " fill="#FEFCFA" transform="translate(44.765625,38.7265625)"/>
<path d="M0 0 C2.5625 0.1875 2.5625 0.1875 4.5625 2.1875 C4.52962417 4.91619407 3.99852229 7.4841618 3.5625 10.1875 C4.34625 10.14625 5.13 10.105 5.9375 10.0625 C8.5625 10.1875 8.5625 10.1875 10.5625 12.1875 C10.5625 13.5075 10.5625 14.8275 10.5625 16.1875 C11.2225 16.8475 11.8825 17.5075 12.5625 18.1875 C11.5725 18.8475 10.5825 19.5075 9.5625 20.1875 C7.9126993 23.48710141 8.17991639 27.17877884 8 30.8125 C7.95681641 31.61429688 7.91363281 32.41609375 7.86914062 33.2421875 C7.76298543 35.2237511 7.66223145 37.20560271 7.5625 39.1875 C8.8825 39.5175 10.2025 39.8475 11.5625 40.1875 C7.54445309 41.02848656 4.54446457 41.24154945 0.5625 40.1875 C2.5425 39.6925 2.5425 39.6925 4.5625 39.1875 C4.42230308 36.37461295 4.27562045 33.56233115 4.125 30.75 C4.08568359 29.94755859 4.04636719 29.14511719 4.00585938 28.31835938 C4.1570704 24.43510439 4.1570704 24.43510439 2.5625 21.1875 C0.21262738 20.95222227 -2.14306039 20.77363583 -4.5 20.625 C-5.79035156 20.54121094 -7.08070312 20.45742188 -8.41015625 20.37109375 C-9.90869141 20.28021484 -9.90869141 20.28021484 -11.4375 20.1875 C-10.4475 19.5275 -9.4575 18.8675 -8.4375 18.1875 C-8.7675 17.8575 -9.0975 17.5275 -9.4375 17.1875 C-9.625 14.75 -9.625 14.75 -9.4375 12.1875 C-7.4375 10.1875 -7.4375 10.1875 -4.875 10.125 C-4.070625 10.145625 -3.26625 10.16625 -2.4375 10.1875 C-2.1075 9.8575 -1.7775 9.5275 -1.4375 9.1875 C-1.953125 8.795625 -2.46875 8.40375 -3 8 C-4.4375 6.1875 -4.4375 6.1875 -4.1875 3.5625 C-3.13874481 0.24144191 -3.13874481 0.24144191 0 0 Z " fill="#F4A576" transform="translate(52.4375,18.8125)"/>
<path d="M0 0 C6.75 0.75 6.75 0.75 9 3 C9.25 5.5 9.25 5.5 9 8 C8.34 8.66 7.68 9.32 7 10 C3.375 9.625 3.375 9.625 0 9 C0 9.66 0 10.32 0 11 C1.32 11.66 2.64 12.32 4 13 C3.125 17.875 3.125 17.875 2 19 C2.99 19.66 3.98 20.32 5 21 C4.03578125 21.02578125 3.0715625 21.0515625 2.078125 21.078125 C0.81484375 21.13484375 -0.4484375 21.1915625 -1.75 21.25 C-3.62945313 21.31960937 -3.62945313 21.31960937 -5.546875 21.390625 C-9.40518636 22.07150347 -10.60916205 22.98126522 -13 26 C-12.8125 23.625 -12.8125 23.625 -12 21 C-9.4375 19.6875 -9.4375 19.6875 -7 19 C-7.061875 17.906875 -7.12375 16.81375 -7.1875 15.6875 C-7 12 -7 12 -5.6875 10.0625 C-4 9 -4 9 -1 9 C-1.20625 8.071875 -1.4125 7.14375 -1.625 6.1875 C-2 3 -2 3 0 0 Z " fill="#F4A576" transform="translate(25,18)"/>
<path d="M0 0 C1.875 1.125 1.875 1.125 3 3 C2.95875 3.99 2.9175 4.98 2.875 6 C2.936875 7.485 2.936875 7.485 3 9 C4.63631892 10.04892238 6.30485863 11.04906703 8 12 C8.8125 14.6875 8.8125 14.6875 9 17 C8.34 15.68 7.68 14.36 7 13 C4.69 13 2.38 13 0 13 C-0.20970559 17.14093698 -0.20970559 17.14093698 1 21 C-1.31 21.33 -3.62 21.66 -6 22 C-5.814375 21.443125 -5.62875 20.88625 -5.4375 20.3125 C-4.92448835 17.600867 -5.3359276 15.65628961 -6 13 C-7.98 13 -9.96 13 -12 13 C-11.77082032 11.39272673 -11.51579198 9.78912584 -11.25 8.1875 C-11.11078125 7.29417969 -10.9715625 6.40085937 -10.828125 5.48046875 C-9.05505162 0.16961217 -5.19127214 -0.66271559 0 0 Z " fill="#F29C67" transform="translate(67,17)"/>
<path d="M0 0 C0.33 0 0.66 0 1 0 C1 5.28 1 10.56 1 16 C2.32 16 3.64 16 5 16 C5 21.94 5 27.88 5 34 C8.96 34 12.92 34 17 34 C17 28.06 17 22.12 17 16 C18.32 16.33 19.64 16.66 21 17 C20.34 17 19.68 17 19 17 C19.01160156 18.28777344 19.02320312 19.57554688 19.03515625 20.90234375 C19.0445327 22.58072772 19.05363305 24.25911326 19.0625 25.9375 C19.07087891 26.78763672 19.07925781 27.63777344 19.08789062 28.51367188 C19.09272461 29.72700195 19.09272461 29.72700195 19.09765625 30.96484375 C19.10551147 32.08814087 19.10551147 32.08814087 19.11352539 33.23413086 C19 35 19 35 18 36 C15.66839945 36.09909302 13.33370058 36.12970504 11 36.125 C9.72125 36.12757812 8.4425 36.13015625 7.125 36.1328125 C4 36 4 36 3 35 C2.92674832 32.13732433 2.90761795 29.299281 2.9375 26.4375 C2.94201172 25.63119141 2.94652344 24.82488281 2.95117188 23.99414062 C2.96299482 21.99606244 2.98093086 19.99802217 3 18 C2.01 18 1.02 18 0 18 C-1.52491129 14.95017742 -1.14361434 11.77877461 -1.125 8.4375 C-1.12886719 7.73947266 -1.13273438 7.04144531 -1.13671875 6.32226562 C-1.12663994 1.12663994 -1.12663994 1.12663994 0 0 Z " fill="#F39D69" transform="translate(13,43)"/>
<path d="M0 0 C0.99 0 1.98 0 3 0 C3 5.94 3 11.88 3 18 C6.96 18 10.92 18 15 18 C15 12.06 15 6.12 15 0 C16.65 0 18.3 0 20 0 C19.01 0.33 18.02 0.66 17 1 C17.01160156 2.28777344 17.02320312 3.57554688 17.03515625 4.90234375 C17.0445327 6.58072772 17.05363305 8.25911326 17.0625 9.9375 C17.07087891 10.78763672 17.07925781 11.63777344 17.08789062 12.51367188 C17.09272461 13.72700195 17.09272461 13.72700195 17.09765625 14.96484375 C17.10551147 16.08814087 17.10551147 16.08814087 17.11352539 17.23413086 C17 19 17 19 16 20 C11.33154772 20.14426614 6.67134047 20.04208415 2 20 C2 13.73 2 7.46 2 1 C1.34 0.67 0.68 0.34 0 0 Z " fill="#F2965E" transform="translate(38,59)"/>
<path d="M0 0 C2.64 0.99 5.28 1.98 8 3 C8 4.65 8 6.3 8 8 C7.443125 7.505 6.88625 7.01 6.3125 6.5 C3.61837017 4.75245633 2.14624993 4.73781251 -1 5 C-1.6878236 7.35367713 -1.6878236 7.35367713 -2 10 C-1.01 11.485 -1.01 11.485 0 13 C-2.60582371 13.93065133 -3.64198224 14.14917407 -6.25 13.0625 C-6.8275 12.711875 -7.405 12.36125 -8 12 C-7.34 11.34 -6.68 10.68 -6 10 C-6.16507646 7.42459787 -6.16507646 7.42459787 -7 5 C-7.66 4.67 -8.32 4.34 -9 4 C-9 3.34 -9 2.68 -9 2 C-7.329375 2.061875 -7.329375 2.061875 -5.625 2.125 C-1.95633975 2.41121859 -1.95633975 2.41121859 0 0 Z " fill="#F29A65" transform="translate(34,25)"/>
<path d="M0 0 C1.65 0 3.3 0 5 0 C5 5.94 5 11.88 5 18 C6.77375 17.95875 8.5475 17.9175 10.375 17.875 C13.3984375 17.8046875 13.3984375 17.8046875 16 18 C16.66 18.66 17.32 19.32 18 20 C15.68756208 20.02685412 13.3750373 20.04632841 11.0625 20.0625 C9.77472656 20.07410156 8.48695312 20.08570312 7.16015625 20.09765625 C4 20 4 20 3 19 C2.91368126 17.65732587 2.89293527 16.31025678 2.90234375 14.96484375 C2.90717773 13.75151367 2.90717773 13.75151367 2.91210938 12.51367188 C2.92048828 11.66353516 2.92886719 10.81339844 2.9375 9.9375 C2.94201172 9.08349609 2.94652344 8.22949219 2.95117188 7.34960938 C2.96299627 5.23304337 2.98093231 3.11651315 3 1 C2.01 0.67 1.02 0.34 0 0 Z " fill="#F2965F" transform="translate(59,59)"/>
<path d="M0 0 C2.5625 0.1875 2.5625 0.1875 4.5625 2.1875 C4.8125 4.6875 4.8125 4.6875 4.5625 7.1875 C3.9025 7.8475 3.2425 8.5075 2.5625 9.1875 C-0.73464793 8.85778521 -2.0601839 8.5648161 -4.4375 6.1875 C-3.71780303 0.28598485 -3.71780303 0.28598485 0 0 Z " fill="#FDF6F1" transform="translate(63.4375,18.8125)"/>
<path d="M0 0 C1.32 0.33 2.64 0.66 4 1 C3.34 1 2.68 1 2 1 C2.01160156 2.28777344 2.02320313 3.57554688 2.03515625 4.90234375 C2.0445327 6.58072772 2.05363305 8.25911326 2.0625 9.9375 C2.07087891 10.78763672 2.07925781 11.63777344 2.08789062 12.51367188 C2.09111328 13.32255859 2.09433594 14.13144531 2.09765625 14.96484375 C2.10289307 15.7137085 2.10812988 16.46257324 2.11352539 17.23413086 C2 19 2 19 1 20 C-1.35313555 20.07271741 -3.70833668 20.08370868 -6.0625 20.0625 C-7.35285156 20.05347656 -8.64320312 20.04445313 -9.97265625 20.03515625 C-10.97167969 20.02355469 -11.97070312 20.01195313 -13 20 C-11 18 -11 18 -8.3984375 17.8046875 C-5.59895833 17.86979167 -2.79947917 17.93489583 0 18 C0 12.06 0 6.12 0 0 Z " fill="#F2965F" transform="translate(30,59)"/>
<path d="M0 0 C2.5625 0.1875 2.5625 0.1875 4.5625 2.1875 C4.1875 5.3125 4.1875 5.3125 3.5625 8.1875 C1.25 8.875 1.25 8.875 -1.4375 9.1875 C-3.3125 8.0625 -3.3125 8.0625 -4.4375 6.1875 C-3.87661439 0.29820111 -3.87661439 0.29820111 0 0 Z " fill="#FEF8F4" transform="translate(41.4375,18.8125)"/>
<path d="M0 0 C1 1 1 1 1.1875 3.4375 C1 6 1 6 -1 8 C-4.29714793 7.67028521 -5.6226839 7.3773161 -8 5 C-7.75 2.4375 -7.75 2.4375 -7 0 C-4.31633121 -1.3418344 -2.84719317 -0.73004953 0 0 Z " fill="#FEF8F4" transform="translate(33,20)"/>
<path d="M0 0 C2.5625 0.1875 2.5625 0.1875 4.5625 2.1875 C4.75 4.75 4.75 4.75 4.5625 7.1875 C3.5625 8.1875 3.5625 8.1875 0.625 8.375 C-2.4375 8.1875 -2.4375 8.1875 -4.4375 6.1875 C-3.71780303 0.28598485 -3.71780303 0.28598485 0 0 Z " fill="#FEF9F6" transform="translate(35.4375,28.8125)"/>
<path d="M0 0 C2.5 0.25 2.5 0.25 4.5 2.25 C3.94444444 6.80555556 3.94444444 6.80555556 2.5 8.25 C-0.5 8.375 -0.5 8.375 -3.5 8.25 C-4.5 7.25 -4.5 7.25 -4.6875 4.8125 C-4.42807033 1.26696114 -3.53871738 0.35387174 0 0 Z " fill="#FEF9F6" transform="translate(24.5,28.75)"/>
<path d="M0 0 C2.5625 0.1875 2.5625 0.1875 4.5625 2.1875 C4.75 4.75 4.75 4.75 4.5625 7.1875 C3.5625 8.1875 3.5625 8.1875 0.625 8.375 C-2.4375 8.1875 -2.4375 8.1875 -4.4375 6.1875 C-3.71780303 0.28598485 -3.71780303 0.28598485 0 0 Z " fill="#FEF9F5" transform="translate(52.4375,18.8125)"/>
<path d="M0 0 C2.5 0.25 2.5 0.25 4.5 2.25 C3.94444444 6.80555556 3.94444444 6.80555556 2.5 8.25 C0.50041636 8.29080783 -1.50045254 8.29254356 -3.5 8.25 C-4.125 5.375 -4.125 5.375 -4.5 2.25 C-2.5 0.25 -2.5 0.25 0 0 Z " fill="#FEFAF8" transform="translate(58.5,28.75)"/>
<path d="M0 0 C2.33944736 0.28730055 4.6739143 0.61936779 7 1 C7.04254356 2.99954746 7.04080783 5.00041636 7 7 C6 8 6 8 3 8.125 C0 8 0 8 -1 7 C-1.125 4 -1.125 4 -1 1 C-0.67 0.67 -0.34 0.34 0 0 Z " fill="#FEFBF9" transform="translate(67,29)"/>
<path d="M0 0 C2.4375 0.1875 2.4375 0.1875 3.4375 1.1875 C3.5625 4.1875 3.5625 4.1875 3.4375 7.1875 C2.4375 8.1875 2.4375 8.1875 -0.5625 8.3125 C-3.5625 8.1875 -3.5625 8.1875 -4.5625 7.1875 C-4.75 4.75 -4.75 4.75 -4.5625 2.1875 C-2.5625 0.1875 -2.5625 0.1875 0 0 Z " fill="#FEFCFA" transform="translate(47.5625,28.8125)"/>
<path d="M0 0 C3.3 0 6.6 0 10 0 C10 1.65 10 3.3 10 5 C8.68 5 7.36 5 6 5 C6 5.99 6 6.98 6 8 C5.34 8 4.68 8 4 8 C3.67 7.34 3.34 6.68 3 6 C2.01 5.67 1.02 5.34 0 5 C0 3.35 0 1.7 0 0 Z " fill="#F39D69" transform="translate(65,44)"/>
<path d="M0 0 C3.3 0 6.6 0 10 0 C10 1.65 10 3.3 10 5 C8.68 5 7.36 5 6 5 C6 5.99 6 6.98 6 8 C5.34 8 4.68 8 4 8 C4 7.01 4 6.02 4 5 C2.68 5 1.36 5 0 5 C0 3.35 0 1.7 0 0 Z " fill="#F39E6B" transform="translate(42,44)"/>
<path d="M0 0 C0.9075 0.185625 1.815 0.37125 2.75 0.5625 C5.68314324 0.95734621 7.2644657 0.94691572 10 0 C10 1.65 10 3.3 10 5 C9.01 5.33 8.02 5.66 7 6 C6.67 6.66 6.34 7.32 6 8 C5.34 8 4.68 8 4 8 C4 7.01 4 6.02 4 5 C2.68 5 1.36 5 0 5 C0 3.35 0 1.7 0 0 Z " fill="#F39D69" transform="translate(19,44)"/>
<path d="M0 0 C2 2 2 2 2 5 C2.804375 5.2475 3.60875 5.495 4.4375 5.75 C7 7 7 7 7.8125 9.125 C7.874375 9.74375 7.93625 10.3625 8 11 C7.48953125 10.51917969 6.9790625 10.03835937 6.453125 9.54296875 C3.17743934 7.48262506 0.59247281 7.49039226 -3.25 7.3125 C-5.14492187 7.21388672 -5.14492187 7.21388672 -7.078125 7.11328125 C-8.04234375 7.07589844 -9.0065625 7.03851563 -10 7 C-6.99112219 5.41841038 -4.36327963 4.56054661 -1 4 C-0.67 2.68 -0.34 1.36 0 0 Z " fill="#F4A779" transform="translate(74,32)"/>
<path d="M0 0 C1.875 0.75 1.875 0.75 2.875 2.75 C0.235 3.74 -2.405 4.73 -5.125 5.75 C-5.125 4.43 -5.125 3.11 -5.125 1.75 C-2.125 -0.25 -2.125 -0.25 0 0 Z " fill="#F2965F" transform="translate(42.125,35.25)"/>
<path d="M0 0 C-0.99 0.33 -1.98 0.66 -3 1 C-3 1.99 -3 2.98 -3 4 C-3.66 4 -4.32 4 -5 4 C-6.625 2 -6.625 2 -8 0 C-5.13822943 -1.43088528 -3.06624227 -0.59991697 0 0 Z " fill="#F3A474" transform="translate(74,48)"/>
<path d="M0 0 C-0.99 0.66 -1.98 1.32 -3 2 C-4.01868662 2.98095748 -5.02351983 3.97702078 -6 5 C-6.66 3.68 -7.32 2.36 -8 1 C-4.93251126 -0.86240388 -3.40254489 -1.2151946 0 0 Z " fill="#F5AD81" transform="translate(65,37)"/>
<path d="M0 0 C1.65 0 3.3 0 5 0 C4.625 1.9375 4.625 1.9375 4 4 C3.01 4.495 3.01 4.495 2 5 C1.34 5.99 0.68 6.98 0 8 C0.185625 7.05125 0.37125 6.1025 0.5625 5.125 C1.28686632 2.10131207 1.28686632 2.10131207 0 0 Z " fill="#F5AF85" transform="translate(51,27)"/>
<path d="M0 0 C1.9375 0.1875 1.9375 0.1875 4 1 C5.25 3.0625 5.25 3.0625 6 5 C5.34 5.66 4.68 6.32 4 7 C3.731875 6.38125 3.46375 5.7625 3.1875 5.125 C2.04443152 2.7004767 2.04443152 2.7004767 -1 1 C-0.67 0.67 -0.34 0.34 0 0 Z " fill="#F3A372" transform="translate(64,17)"/>
</svg>
